<svg xmlns="http://www.w3.org/2000/svg" width="9.202" height="9.202" viewBox="0 0 9.202 9.202">
  <path id="font" d="M8.873,10.137H8.392L5.708,2.7a.657.657,0,0,0-.622-.446H4.117a.657.657,0,0,0-.622.446L.809,10.137H.329A.329.329,0,0,0,0,10.466v.657a.329.329,0,0,0,.329.329H2.958a.329.329,0,0,0,.329-.329v-.657a.329.329,0,0,0-.329-.329h-.4l.479-1.315H6.168l.479,1.315h-.4a.329.329,0,0,0-.329.329v.657a.329.329,0,0,0,.329.329H8.873a.329.329,0,0,0,.329-.329v-.657A.329.329,0,0,0,8.873,10.137ZM3.633,7.18,4.6,4.52l.968,2.66Z" transform="translate(0 -2.25)" fill="#01807e"/>
</svg>
